<svg width="18" height="18" viewBox="0 0 18 18" fill="none" xmlns="http://www.w3.org/2000/svg">
<path d="M1 18C0.716667 18 0.479333 17.904 0.288 17.712C0.0966668 17.52 0.000666667 17.2827 0 17V14.575C0 14.3083 0.0500001 14.054 0.15 13.812C0.25 13.57 0.391667 13.3577 0.575 13.175L13.2 0.575C13.4 0.391667 13.621 0.25 13.863 0.15C14.105 0.0500001 14.359 0 14.625 0C14.891 0 15.1493 0.0500001 15.4 0.15C15.6507 0.25 15.8673 0.4 16.05 0.6L17.425 2C17.625 2.18333 17.7707 2.4 17.862 2.65C17.9533 2.9 17.9993 3.15 18 3.4C18 3.66667 17.954 3.921 17.862 4.163C17.77 4.405 17.6243 4.62567 17.425 4.825L4.825 17.425C4.64167 17.6083 4.429 17.75 4.187 17.85C3.945 17.95 3.691 18 3.425 18H1ZM14.6 4.8L16 3.4L14.6 2L13.2 3.4L14.6 4.8Z" fill="#78555E"/>
</svg>
